<?xml version="1.0" encoding="UTF-8"?>
<svg version="1.1" viewBox="0 0 1191 941" width="1280" height="1280" xmlns="http://www.w3.org/2000/svg">
<path transform="translate(0)" d="m0 0h1191v941h-1191z" fill="#0C1844"/>
<path transform="translate(608,110)" d="m0 0h560v770h-560z" fill="#FEFEFE"/>
<path transform="translate(29,650)" d="m0 0h557l2 2v239l-2 2h-557l-2-2v-239z" fill="#636D79"/>
<path transform="translate(29,380)" d="m0 0h557l2 2v239l-2 2h-557l-2-2v-239z" fill="#636D79"/>
<path transform="translate(29,110)" d="m0 0h557l2 2v239l-2 2h-557l-2-2v-239z" fill="#636D79"/>
<path transform="translate(0)" d="m0 0h1191v61h-1190v862h1190v18h-1191z" fill="#1679AB"/>
<path transform="translate(0)" d="m0 0h1v923h1190v18h-1191z" fill="#1B79A9"/>
<path transform="translate(611,90)" d="m0 0h16l1 1v11h2l-1 4h-20l-1-4 1-11z" fill="#63829B"/>
<path transform="translate(27,630)" d="m0 0h16v16h-16z" fill="#FEFEFE"/>
<path transform="translate(27,360)" d="m0 0h14l-1 13-1 2-7 1-4-2z" fill="#FEFEFE"/>
<path transform="translate(27,90)" d="m0 0h14l-1 13-1 2-7 1-4-2z" fill="#CDD4DB"/>
<path transform="translate(578,21)" d="m0 0h4v17h-10l-2-3v-6l3-3h5z" fill="#FEFEFE"/>
<path transform="translate(521,21)" d="m0 0h3v17h-9l-3-3 1-7 2-2h5z" fill="#FEFEFE"/>
<path transform="translate(774,928)" d="m0 0h12l2 2-1 5-5 5-5-1-4-5v-5z" fill="#646E7A"/>
<path transform="translate(616,26)" d="m0 0h6l3 2 1 5-3 5h-7l-3-4 1-6z" fill="#FEFEFE"/>
<path transform="translate(501,26)" d="m0 0h6l3 3v7l-2 2h-7l-3-3v-6z" fill="#FEFEFE"/>
<path transform="translate(557,22)" d="m0 0h10v3h-7v3h6v3h-6v4h7l1 3h-11z" fill="#FEFEFE"/>
<path transform="translate(530,26)" d="m0 0h6l3 3v4l-8 1 5 1h2v3h-8l-3-3v-6z" fill="#E1EDF3"/>
<path transform="translate(638,93)" d="m0 0h5l2 3v7l-2 2h-5l-2-3v-6z" fill="#FEFEFE"/>
<path transform="translate(488,22)" d="m0 0h6l2 2-1 2h-6l-1 7v2l7-1v4h-8l-3-3v-9z" fill="#FEFEFE"/>
<path transform="translate(611,90)" d="m0 0h16l1 1v11h-2v-9h-14v9h-2v-11z" fill="#FEFEFE"/>
<path transform="translate(603,22)" d="m0 0h2v4h6l-1 3h-5l1 6 5 1v2h-7l-2-2v-7h-3v-3h3z" fill="#FEFEFE"/>
<path transform="translate(507,929)" d="m0 0 4 1 2 2-1 7-1 1h-5l-2-2v-7z" fill="#A3C8DA"/>
<path transform="translate(536,929)" d="m0 0 4 1 1 2v6l-2 2h-5l-1-2v-6z" fill="#FEFEFE"/>
<path transform="translate(125,633)" d="m0 0h6l2 1v5h-2l2 6h-2l-2-4-2-1v5h-2z" fill="#CDD1D9"/>
<path transform="translate(68,93)" d="m0 0 3 1 2 3 2-4h2v12h-2l-1-4h-3l-1 4h-2z" fill="#FEFEFE"/>
<path transform="translate(669,93)" d="m0 0h7l1 1v5l-6 2v4h-2z" fill="#B8C1CE"/>
<path transform="translate(629,26)" d="m0 0 4 1 1-1h6l-1 3-5 1-1 8h-4z" fill="#FEFEFE"/>
<path transform="translate(608,103)" d="m0 0h22l-1 3h-20z" fill="#FEFEFE"/>
<path transform="translate(147,633)" d="m0 0h6l2 2-1 5-6 1-1 4z" fill="#B7BECA"/>
<path transform="translate(428,932)" d="m0 0h6l2 5-2 3-6 1z" fill="#B2D2E2"/>
<path transform="translate(613,93)" d="m0 0h12v9h-8l1-2 4-1v-3l-3-1-1 2v-2l-4 2z" fill="#0F1E49"/>
<path transform="translate(741,928)" d="m0 0h1v12h-6l-1-1v-5l2-2h4z" fill="#A8CBDE"/>
<path transform="translate(47,93)" d="m0 0h2v5h4v-5h2v12h-2v-5h-4v5h-2z" fill="#FEFEFE"/>
<path transform="translate(420,932)" d="m0 0 5 1 1 5-1 2h-6l-1-1v-5z" fill="#A9CDDF"/>
<path transform="translate(85,633)" d="m0 0h2l4 12h-2l-1-2-5-1v3h-2l3-11z" fill="#FEFEFE"/>
<path transform="translate(63,633)" d="m0 0h2l4 12h-2l-1-2h-4l-1 2-2-1z" fill="#DAE0E6"/>
<path transform="translate(585,26)" d="m0 0h8v12h-3v-9h-5z" fill="#FEFEFE"/>
<path transform="translate(468,932)" d="m0 0h6l-1 5-2 1 3 1v2h-8l1-8z" fill="#C9DDE8"/>
<path transform="translate(707,929)" d="m0 0 6 1 1 5-6 1-1 4z" fill="#BDD5E2"/>
<path transform="translate(30,363)" d="m0 0h8v2l-2 1 2 1-1 5h-6l-1-3h2v2h4v-3h-6z" fill="#28476A"/>
<path transform="translate(631,932)" d="m0 0 5 1 1 1v6h-7v-4l4-2-4-1z" fill="#D1E3EC"/>
<path transform="translate(592,929)" d="m0 0 2 4 3-4 2 1-2 5 2 5h-2l-3-4-1 4h-2v-10z" fill="#FEFEFE"/>
<path transform="translate(556,930)" d="m0 0h3l1 7-1 3h-2v-3h-5l2-4z" fill="#DDEBF2"/>
<path transform="translate(70,363)" d="m0 0h5l1 2h-4v2l5 3-1 4-1 1-7-1 3-1h3v-2l-5-3z" fill="#FEFEFE"/>
<path transform="translate(638,95)" d="m0 0h5v8l-4 1-1-1z" fill="#152952"/>
<path transform="translate(746,932)" d="m0 0h5l1 5-5 1 5 1v1h-6l-1-1v-6z" fill="#DCEBF2"/>
<path transform="translate(717,932)" d="m0 0h5l1 1v7h-6l-1-4 5-1v-2l-5 1z" fill="#C6DEEA"/>
<path transform="translate(669,932)" d="m0 0h5l1 1v7h-6l-1-4 5-1v-2l-5 1z" fill="#C6DEEA"/>
<path transform="translate(476,928)" d="m0 0 2 1v3l5 1v7h-2v-7l-2 1-1 6h-2z" fill="#FEFEFE"/>
<path transform="translate(34,638)" d="m0 0h7l-2 2 3 3-1 2-5-1-4 1z" fill="#648AA4"/>
<path transform="translate(680,93)" d="m0 0h1l1 9 3 1 1-10h2v10l-2 2h-5l-1-1z" fill="#FEFEFE"/>
<path transform="translate(586,885)" d="m0 0h2v6l-2 2h-6l2-4z" fill="#818995"/>
<path transform="translate(136,633)" d="m0 0h8l-1 2h-2v9l3 1h-8l3-1v-9l-3-1z" fill="#FEFEFE"/>
<path transform="translate(586,615)" d="m0 0h2v6l-2 2h-6l2-4z" fill="#818995"/>
<path transform="translate(586,345)" d="m0 0h2v6l-2 2h-6l2-4z" fill="#818995"/>
<path transform="translate(50,633)" d="m0 0h7v10l-1 2h-6v-2h4l1-8-5-1z" fill="#FEFEFE"/>
<path transform="translate(70,633)" d="m0 0h2l3 8 3-8 1 4-3 8-3-1z" fill="#FEFEFE"/>
<path transform="translate(657,93)" d="m0 0h10l-1 2h-3v10h-2v-10l-4-1z" fill="#FEFEFE"/>
<path transform="translate(57,93)" d="m0 0h9v2h-3v10h-2v-10l-4-1z" fill="#FEFEFE"/>
<path transform="translate(526,929)" d="m0 0 5 2-1 4-2 3 3 2h-7l4-8h-4v-2z" fill="#FEFEFE"/>
<path transform="translate(546,929)" d="m0 0 4 2-1 5-2 2 4 2h-8l4-6 1-3-5 1v-2z" fill="#FEFEFE"/>
<path transform="translate(503,28)" d="m0 0 4 2-1 6-4-1-1-4z" fill="#1A78A8"/>
<path transform="translate(411,929)" d="m0 0 5 1v1h-5v6l5 1v2h-6l-2-3 1-6z" fill="#FEFEFE"/>
<path transform="translate(659,929)" d="m0 0 2 4 3-4 2 1-2 4 2 6-5-4-2 4z" fill="#FEFEFE"/>
<path transform="translate(619,28)" d="m0 0 3 2v5l-4 1-1-1v-6z" fill="#1679AB"/>
<path transform="translate(518,28)" d="m0 0 3 1-1 7-4-1v-6z" fill="#1679AB"/>
<path transform="translate(729,933)" d="m0 0 2 1 1 7h-5v-7z" fill="#2576A1"/>
<path transform="translate(681,933)" d="m0 0 2 1 1 7h-5v-7z" fill="#2576A1"/>
<path transform="translate(487,930)" d="m0 0h2v2l4 1h-4l1 5 3 2h-5l-1-1v-6l-2-1h2z" fill="#FEFEFE"/>
<path transform="translate(575,28)" d="m0 0 3 1v6h-4l-1-4z" fill="#1B78A7"/>
<path transform="translate(726,932)" d="m0 0h6l1 1v7h-2l-1-6h-3v6h-1z" fill="#FEFEFE"/>
<path transform="translate(678,932)" d="m0 0h6l1 1v7h-2l-1-6h-3v6h-1z" fill="#FEFEFE"/>
<path transform="translate(689,930)" d="m0 0h2v2l4 1h-4v6l4 1h-5l-1-1v-6l-2-1h2z" fill="#FEFEFE"/>
<path transform="translate(437,932)" d="m0 0h2l1 5h2l1-5h2l-3 9h-2z" fill="#FEFEFE"/>
<path transform="translate(536,931)" d="m0 0 3 1v6h-4v-6z" fill="#398BB5"/>
<path transform="translate(157,633)" d="m0 0h9v2h-4v10h-1v-10h-4z" fill="#FEFEFE"/>
<path transform="translate(690,93)" d="m0 0h9v2h-4v10h-1v-10h-4z" fill="#FEFEFE"/>
<path transform="translate(85,633)" d="m0 0h2l1 5-1 2h-4l1-6z" fill="#BDC7D2"/>
<path transform="translate(639,932)" d="m0 0 3 3v2h2l1-5h2l-3 9h-2z" fill="#FEFEFE"/>
</svg>
