<?xml version="1.0" encoding="UTF-8"?>
<svg version="1.1" xmlns="http://www.w3.org/2000/svg" width="1904" height="942">
<path d="M0 0 C628.32 0 1256.64 0 1904 0 C1904 310.86 1904 621.72 1904 942 C1275.68 942 647.36 942 0 942 C0 631.14 0 320.28 0 0 Z " fill="#0C1844" transform="translate(0,0)"/>
<path d="M0 0 C301.95 0 603.9 0 915 0 C915 254.1 915 508.2 915 770 C613.05 770 311.1 770 0 770 C0 515.9 0 261.8 0 0 Z " fill="#FFFFFF" transform="translate(962,109)"/>
<path d="M0 0 C1.96688794 -0.00751056 1.96688794 -0.00751056 3.97351098 -0.01517284 C5.44556943 -0.01061844 6.91762733 -0.00588202 8.38968468 -0.00098395 C9.94676211 -0.00306805 11.50383857 -0.00602892 13.06091285 -0.00979269 C17.37491193 -0.01763745 21.68882245 -0.01289143 26.00282022 -0.00623678 C30.68274799 -0.00119242 35.3626615 -0.0076716 40.04258728 -0.01272345 C48.25640114 -0.01997081 56.47018874 -0.01971304 64.68400383 -0.01462913 C76.897873 -0.00708979 89.11171988 -0.01091824 101.32558888 -0.01704574 C123.13469232 -0.027599 144.94378406 -0.0266558 166.75288862 -0.02088792 C185.83792745 -0.015865 204.92296198 -0.01453957 224.00800133 -0.0169332 C225.90388213 -0.01716236 225.90388213 -0.01716236 227.83806355 -0.01739614 C232.96819439 -0.01801878 238.09832523 -0.01865557 243.22845606 -0.01931567 C279.05126302 -0.02387016 314.8740682 -0.0246643 350.69687462 -0.01718879 C351.37245491 -0.01704829 352.04803521 -0.01690779 352.74408763 -0.01676304 C363.71593762 -0.01447298 374.68778758 -0.01203413 385.65963753 -0.00958269 C429.17865598 0.00013042 472.69766213 -0.0003204 516.21668053 -0.01004386 C527.1829179 -0.01248613 538.14915528 -0.01490818 549.11539268 -0.01718879 C549.79057082 -0.01732968 550.46574895 -0.01747058 551.16138702 -0.01761575 C587.58800557 -0.02516527 624.01462323 -0.02350637 660.44124222 -0.01881933 C665.56225014 -0.01817786 670.68325806 -0.01755218 675.80426598 -0.0169332 C677.69577406 -0.01669597 677.69577406 -0.01669597 679.62549444 -0.01645395 C698.70270557 -0.01417503 717.77991195 -0.01684693 736.85712242 -0.02189231 C758.53975566 -0.02759801 780.22237534 -0.02620864 801.90500689 -0.01533082 C814.05332682 -0.00943795 826.20161741 -0.00910401 838.34993661 -0.01662317 C846.45014958 -0.0210856 854.55033889 -0.01835757 862.65054833 -0.00961363 C867.27536048 -0.00482581 871.90011408 -0.0032915 876.52492452 -0.0104256 C880.72372409 -0.01683696 884.92241261 -0.01421361 889.12120393 -0.00406428 C890.63889424 -0.0020329 892.15659353 -0.00342627 893.6742768 -0.00847615 C895.72026579 -0.01480624 897.76628343 -0.00781258 899.8122673 0 C900.9495425 0.00013552 902.08681769 0.00027104 903.25855577 0.00041066 C905.90613365 0.25069833 905.90613365 0.25069833 907.90613365 2.25069833 C908.10435804 5.37987172 908.1752364 8.42069125 908.16010094 11.55111337 C908.16322092 12.5273801 908.1663409 13.50364683 908.16955543 14.5094974 C908.17757308 17.80154653 908.17119714 21.09341325 908.16492271 24.38546395 C908.1676309 26.73716489 908.17119086 29.08886497 908.17554283 31.44056344 C908.18468957 37.84328868 908.18111318 44.24594974 908.17478466 50.64867616 C908.16944752 56.65859244 908.17370325 62.66850754 908.17663905 68.67842418 C908.18234708 81.30710851 908.17577705 93.93576384 908.16503832 106.56444341 C908.15610237 117.40893223 908.15765428 128.25337825 908.16687584 139.0978663 C908.17757014 151.68024662 908.18179771 164.2626015 908.17565131 176.84498572 C908.1724844 183.50951437 908.172137 190.17401732 908.17872429 196.83854318 C908.18448293 203.10276703 908.18052811 209.36690969 908.16893578 215.63112473 C908.16628123 217.93624192 908.16706771 220.24136589 908.17146111 222.54648042 C908.17688676 225.68117503 908.17011883 228.81560571 908.16010094 231.95028329 C908.16456238 232.87303001 908.16902382 233.79577673 908.17362046 234.74648547 C908.13443363 241.02239835 908.13443363 241.02239835 905.90613365 243.25069833 C903.25855577 243.50098599 903.25855577 243.50098599 899.8122673 243.50139666 C898.50100868 243.50640369 897.18975006 243.51141073 895.83875632 243.5165695 C894.36669787 243.51201509 892.89463997 243.50727868 891.42258263 243.50238061 C889.8655052 243.50446471 888.30842873 243.50742558 886.75135446 243.51118934 C882.43735537 243.51903411 878.12344485 243.51428808 873.80944708 243.50763344 C869.12951931 243.50258908 864.44960581 243.50906826 859.76968002 243.5141201 C851.55586617 243.52136746 843.34207856 243.5211097 835.12826347 243.51602578 C822.9143943 243.50848645 810.70054743 243.5123149 798.48667842 243.5184424 C776.67757499 243.52899565 754.86848324 243.52805245 733.05937868 243.52228457 C713.97433986 243.51726165 694.88930533 243.51593622 675.80426598 243.51832986 C673.90838517 243.51855901 673.90838517 243.51855901 671.97420375 243.5187928 C666.84407291 243.51941543 661.71394208 243.52005223 656.58381125 243.52071233 C620.76100428 243.52526682 584.9381991 243.52606095 549.11539268 243.51858544 C548.43981239 243.51844495 547.7642321 243.51830445 547.06817967 243.51815969 C536.09632968 243.51586964 525.12447973 243.51343079 514.15262977 243.51097934 C470.63361132 243.50126624 427.11460518 243.50171706 383.59558678 243.51144052 C372.6293494 243.51388278 361.66311203 243.51630483 350.69687462 243.51858544 C350.02169649 243.51872634 349.34651836 243.51886724 348.65088028 243.5190124 C312.22426174 243.52656193 275.79764407 243.52490302 239.37102509 243.52021599 C234.25001717 243.51957451 229.12900925 243.51894884 224.00800133 243.51832986 C222.74699594 243.5181717 221.48599054 243.51801355 220.18677287 243.5178506 C201.10956173 243.51557168 182.03235536 243.51824359 162.95514488 243.52328897 C141.27251164 243.52899466 119.58989196 243.52760529 97.90726042 243.51672748 C85.75894049 243.5108346 73.61064989 243.51050066 61.46233069 243.51801983 C53.36211772 243.52248226 45.26192842 243.51975423 37.16171897 243.51101029 C32.53690682 243.50622247 27.91215323 243.50468815 23.28734279 243.51182225 C19.08854321 243.51823361 14.88985469 243.51561027 10.69106337 243.50546093 C9.17337306 243.50342955 7.65567377 243.50482293 6.1379905 243.50987281 C4.09200151 243.5162029 2.04598387 243.50920924 0 243.50139666 C-1.13727519 243.50126114 -2.27455039 243.50112562 -3.44628847 243.50098599 C-6.09386635 243.25069833 -6.09386635 243.25069833 -8.09386635 241.25069833 C-8.29209073 238.12152493 -8.3629691 235.0807054 -8.34783363 231.95028329 C-8.35095361 230.97401656 -8.3540736 229.99774982 -8.35728812 228.99189925 C-8.36530578 225.69985013 -8.35892984 222.40798341 -8.35265541 219.1159327 C-8.3553636 216.76423177 -8.35892356 214.41253168 -8.36327553 212.06083322 C-8.37242226 205.65810797 -8.36884588 199.25544692 -8.36251736 192.8527205 C-8.35718022 186.84280421 -8.36143595 180.83288912 -8.36437175 174.82297248 C-8.37007978 162.19428815 -8.36350975 149.56563282 -8.35277101 136.93695325 C-8.34383507 126.09246442 -8.34538698 115.24801841 -8.35460854 104.40353036 C-8.36530284 91.82115004 -8.36953041 79.23879516 -8.36338401 66.65641093 C-8.3602171 59.99188228 -8.3598697 53.32737934 -8.36645699 46.66285348 C-8.37221563 40.39862962 -8.36826081 34.13448696 -8.35666847 27.87027192 C-8.35401393 25.56515474 -8.35480041 23.26003077 -8.3591938 20.95491624 C-8.36461946 17.82022162 -8.35785153 14.68579094 -8.34783363 11.55111337 C-8.35229508 10.62836665 -8.35675652 9.70561993 -8.36135316 8.75491118 C-8.3150503 1.33934161 -7.34978147 0.0008758 0 0 Z " fill="#636E79" transform="translate(34.0938663482666,648.7493016719818)"/>
<path d="M0 0 C1.96688794 -0.00751056 1.96688794 -0.00751056 3.97351098 -0.01517284 C5.44556943 -0.01061844 6.91762733 -0.00588202 8.38968468 -0.00098395 C9.94676211 -0.00306805 11.50383857 -0.00602892 13.06091285 -0.00979269 C17.37491193 -0.01763745 21.68882245 -0.01289143 26.00282022 -0.00623678 C30.68274799 -0.00119242 35.3626615 -0.0076716 40.04258728 -0.01272345 C48.25640114 -0.01997081 56.47018874 -0.01971304 64.68400383 -0.01462913 C76.897873 -0.00708979 89.11171988 -0.01091824 101.32558888 -0.01704574 C123.13469232 -0.027599 144.94378406 -0.0266558 166.75288862 -0.02088792 C185.83792745 -0.015865 204.92296198 -0.01453957 224.00800133 -0.0169332 C225.90388213 -0.01716236 225.90388213 -0.01716236 227.83806355 -0.01739614 C232.96819439 -0.01801878 238.09832523 -0.01865557 243.22845606 -0.01931567 C279.05126302 -0.02387016 314.8740682 -0.0246643 350.69687462 -0.01718879 C351.37245491 -0.01704829 352.04803521 -0.01690779 352.74408763 -0.01676304 C363.71593762 -0.01447298 374.68778758 -0.01203413 385.65963753 -0.00958269 C429.17865598 0.00013042 472.69766213 -0.0003204 516.21668053 -0.01004386 C527.1829179 -0.01248613 538.14915528 -0.01490818 549.11539268 -0.01718879 C549.79057082 -0.01732968 550.46574895 -0.01747058 551.16138702 -0.01761575 C587.58800557 -0.02516527 624.01462323 -0.02350637 660.44124222 -0.01881933 C665.56225014 -0.01817786 670.68325806 -0.01755218 675.80426598 -0.0169332 C677.69577406 -0.01669597 677.69577406 -0.01669597 679.62549444 -0.01645395 C698.70270557 -0.01417503 717.77991195 -0.01684693 736.85712242 -0.02189231 C758.53975566 -0.02759801 780.22237534 -0.02620864 801.90500689 -0.01533082 C814.05332682 -0.00943795 826.20161741 -0.00910401 838.34993661 -0.01662317 C846.45014958 -0.0210856 854.55033889 -0.01835757 862.65054833 -0.00961363 C867.27536048 -0.00482581 871.90011408 -0.0032915 876.52492452 -0.0104256 C880.72372409 -0.01683696 884.92241261 -0.01421361 889.12120393 -0.00406428 C890.63889424 -0.0020329 892.15659353 -0.00342627 893.6742768 -0.00847615 C895.72026579 -0.01480624 897.76628343 -0.00781258 899.8122673 0 C900.9495425 0.00013552 902.08681769 0.00027104 903.25855577 0.00041066 C905.90613365 0.25069833 905.90613365 0.25069833 907.90613365 2.25069833 C908.10435804 5.37987172 908.1752364 8.42069125 908.16010094 11.55111337 C908.16322092 12.5273801 908.1663409 13.50364683 908.16955543 14.5094974 C908.17757308 17.80154653 908.17119714 21.09341325 908.16492271 24.38546395 C908.1676309 26.73716489 908.17119086 29.08886497 908.17554283 31.44056344 C908.18468957 37.84328868 908.18111318 44.24594974 908.17478466 50.64867616 C908.16944752 56.65859244 908.17370325 62.66850754 908.17663905 68.67842418 C908.18234708 81.30710851 908.17577705 93.93576384 908.16503832 106.56444341 C908.15610237 117.40893223 908.15765428 128.25337825 908.16687584 139.0978663 C908.17757014 151.68024662 908.18179771 164.2626015 908.17565131 176.84498572 C908.1724844 183.50951437 908.172137 190.17401732 908.17872429 196.83854318 C908.18448293 203.10276703 908.18052811 209.36690969 908.16893578 215.63112473 C908.16628123 217.93624192 908.16706771 220.24136589 908.17146111 222.54648042 C908.17688676 225.68117503 908.17011883 228.81560571 908.16010094 231.95028329 C908.16456238 232.87303001 908.16902382 233.79577673 908.17362046 234.74648547 C908.13443363 241.02239835 908.13443363 241.02239835 905.90613365 243.25069833 C903.25855577 243.50098599 903.25855577 243.50098599 899.8122673 243.50139666 C898.50100868 243.50640369 897.18975006 243.51141073 895.83875632 243.5165695 C894.36669787 243.51201509 892.89463997 243.50727868 891.42258263 243.50238061 C889.8655052 243.50446471 888.30842873 243.50742558 886.75135446 243.51118934 C882.43735537 243.51903411 878.12344485 243.51428808 873.80944708 243.50763344 C869.12951931 243.50258908 864.44960581 243.50906826 859.76968002 243.5141201 C851.55586617 243.52136746 843.34207856 243.5211097 835.12826347 243.51602578 C822.9143943 243.50848645 810.70054743 243.5123149 798.48667842 243.5184424 C776.67757499 243.52899565 754.86848324 243.52805245 733.05937868 243.52228457 C713.97433986 243.51726165 694.88930533 243.51593622 675.80426598 243.51832986 C673.90838517 243.51855901 673.90838517 243.51855901 671.97420375 243.5187928 C666.84407291 243.51941543 661.71394208 243.52005223 656.58381125 243.52071233 C620.76100428 243.52526682 584.9381991 243.52606095 549.11539268 243.51858544 C548.43981239 243.51844495 547.7642321 243.51830445 547.06817967 243.51815969 C536.09632968 243.51586964 525.12447973 243.51343079 514.15262977 243.51097934 C470.63361132 243.50126624 427.11460518 243.50171706 383.59558678 243.51144052 C372.6293494 243.51388278 361.66311203 243.51630483 350.69687462 243.51858544 C350.02169649 243.51872634 349.34651836 243.51886724 348.65088028 243.5190124 C312.22426174 243.52656193 275.79764407 243.52490302 239.37102509 243.52021599 C234.25001717 243.51957451 229.12900925 243.51894884 224.00800133 243.51832986 C222.74699594 243.5181717 221.48599054 243.51801355 220.18677287 243.5178506 C201.10956173 243.51557168 182.03235536 243.51824359 162.95514488 243.52328897 C141.27251164 243.52899466 119.58989196 243.52760529 97.90726042 243.51672748 C85.75894049 243.5108346 73.61064989 243.51050066 61.46233069 243.51801983 C53.36211772 243.52248226 45.26192842 243.51975423 37.16171897 243.51101029 C32.53690682 243.50622247 27.91215323 243.50468815 23.28734279 243.51182225 C19.08854321 243.51823361 14.88985469 243.51561027 10.69106337 243.50546093 C9.17337306 243.50342955 7.65567377 243.50482293 6.1379905 243.50987281 C4.09200151 243.5162029 2.04598387 243.50920924 0 243.50139666 C-1.13727519 243.50126114 -2.27455039 243.50112562 -3.44628847 243.50098599 C-6.09386635 243.25069833 -6.09386635 243.25069833 -8.09386635 241.25069833 C-8.29209073 238.12152493 -8.3629691 235.0807054 -8.34783363 231.95028329 C-8.35095361 230.97401656 -8.3540736 229.99774982 -8.35728812 228.99189925 C-8.36530578 225.69985013 -8.35892984 222.40798341 -8.35265541 219.1159327 C-8.3553636 216.76423177 -8.35892356 214.41253168 -8.36327553 212.06083322 C-8.37242226 205.65810797 -8.36884588 199.25544692 -8.36251736 192.8527205 C-8.35718022 186.84280421 -8.36143595 180.83288912 -8.36437175 174.82297248 C-8.37007978 162.19428815 -8.36350975 149.56563282 -8.35277101 136.93695325 C-8.34383507 126.09246442 -8.34538698 115.24801841 -8.35460854 104.40353036 C-8.36530284 91.82115004 -8.36953041 79.23879516 -8.36338401 66.65641093 C-8.3602171 59.99188228 -8.3598697 53.32737934 -8.36645699 46.66285348 C-8.37221563 40.39862962 -8.36826081 34.13448696 -8.35666847 27.87027192 C-8.35401393 25.56515474 -8.35480041 23.26003077 -8.3591938 20.95491624 C-8.36461946 17.82022162 -8.35785153 14.68579094 -8.34783363 11.55111337 C-8.35229508 10.62836665 -8.35675652 9.70561993 -8.36135316 8.75491118 C-8.3150503 1.33934161 -7.34978147 0.0008758 0 0 Z " fill="#636E79" transform="translate(34.0938663482666,378.7493016719818)"/>
<path d="M0 0 C1.96688794 -0.00751056 1.96688794 -0.00751056 3.97351098 -0.01517284 C5.44556943 -0.01061844 6.91762733 -0.00588202 8.38968468 -0.00098395 C9.94676211 -0.00306805 11.50383857 -0.00602892 13.06091285 -0.00979269 C17.37491193 -0.01763745 21.68882245 -0.01289143 26.00282022 -0.00623678 C30.68274799 -0.00119242 35.3626615 -0.0076716 40.04258728 -0.01272345 C48.25640114 -0.01997081 56.47018874 -0.01971304 64.68400383 -0.01462913 C76.897873 -0.00708979 89.11171988 -0.01091824 101.32558888 -0.01704574 C123.13469232 -0.027599 144.94378406 -0.0266558 166.75288862 -0.02088792 C185.83792745 -0.015865 204.92296198 -0.01453957 224.00800133 -0.0169332 C225.90388213 -0.01716236 225.90388213 -0.01716236 227.83806355 -0.01739614 C232.96819439 -0.01801878 238.09832523 -0.01865557 243.22845606 -0.01931567 C279.05126302 -0.02387016 314.8740682 -0.0246643 350.69687462 -0.01718879 C351.37245491 -0.01704829 352.04803521 -0.01690779 352.74408763 -0.01676304 C363.71593762 -0.01447298 374.68778758 -0.01203413 385.65963753 -0.00958269 C429.17865598 0.00013042 472.69766213 -0.0003204 516.21668053 -0.01004386 C527.1829179 -0.01248613 538.14915528 -0.01490818 549.11539268 -0.01718879 C549.79057082 -0.01732968 550.46574895 -0.01747058 551.16138702 -0.01761575 C587.58800557 -0.02516527 624.01462323 -0.02350637 660.44124222 -0.01881933 C665.56225014 -0.01817786 670.68325806 -0.01755218 675.80426598 -0.0169332 C677.69577406 -0.01669597 677.69577406 -0.01669597 679.62549444 -0.01645395 C698.70270557 -0.01417503 717.77991195 -0.01684693 736.85712242 -0.02189231 C758.53975566 -0.02759801 780.22237534 -0.02620864 801.90500689 -0.01533082 C814.05332682 -0.00943795 826.20161741 -0.00910401 838.34993661 -0.01662317 C846.45014958 -0.0210856 854.55033889 -0.01835757 862.65054833 -0.00961363 C867.27536048 -0.00482581 871.90011408 -0.0032915 876.52492452 -0.0104256 C880.72372409 -0.01683696 884.92241261 -0.01421361 889.12120393 -0.00406428 C890.63889424 -0.0020329 892.15659353 -0.00342627 893.6742768 -0.00847615 C895.72026579 -0.01480624 897.76628343 -0.00781258 899.8122673 0 C900.9495425 0.00013552 902.08681769 0.00027104 903.25855577 0.00041066 C905.90613365 0.25069833 905.90613365 0.25069833 907.90613365 2.25069833 C908.10435804 5.37987172 908.1752364 8.42069125 908.16010094 11.55111337 C908.16322092 12.5273801 908.1663409 13.50364683 908.16955543 14.5094974 C908.17757308 17.80154653 908.17119714 21.09341325 908.16492271 24.38546395 C908.1676309 26.73716489 908.17119086 29.08886497 908.17554283 31.44056344 C908.18468957 37.84328868 908.18111318 44.24594974 908.17478466 50.64867616 C908.16944752 56.65859244 908.17370325 62.66850754 908.17663905 68.67842418 C908.18234708 81.30710851 908.17577705 93.93576384 908.16503832 106.56444341 C908.15610237 117.40893223 908.15765428 128.25337825 908.16687584 139.0978663 C908.17757014 151.68024662 908.18179771 164.2626015 908.17565131 176.84498572 C908.1724844 183.50951437 908.172137 190.17401732 908.17872429 196.83854318 C908.18448293 203.10276703 908.18052811 209.36690969 908.16893578 215.63112473 C908.16628123 217.93624192 908.16706771 220.24136589 908.17146111 222.54648042 C908.17688676 225.68117503 908.17011883 228.81560571 908.16010094 231.95028329 C908.16456238 232.87303001 908.16902382 233.79577673 908.17362046 234.74648547 C908.13443363 241.02239835 908.13443363 241.02239835 905.90613365 243.25069833 C903.25855577 243.50098599 903.25855577 243.50098599 899.8122673 243.50139666 C898.50100868 243.50640369 897.18975006 243.51141073 895.83875632 243.5165695 C894.36669787 243.51201509 892.89463997 243.50727868 891.42258263 243.50238061 C889.8655052 243.50446471 888.30842873 243.50742558 886.75135446 243.51118934 C882.43735537 243.51903411 878.12344485 243.51428808 873.80944708 243.50763344 C869.12951931 243.50258908 864.44960581 243.50906826 859.76968002 243.5141201 C851.55586617 243.52136746 843.34207856 243.5211097 835.12826347 243.51602578 C822.9143943 243.50848645 810.70054743 243.5123149 798.48667842 243.5184424 C776.67757499 243.52899565 754.86848324 243.52805245 733.05937868 243.52228457 C713.97433986 243.51726165 694.88930533 243.51593622 675.80426598 243.51832986 C673.90838517 243.51855901 673.90838517 243.51855901 671.97420375 243.5187928 C666.84407291 243.51941543 661.71394208 243.52005223 656.58381125 243.52071233 C620.76100428 243.52526682 584.9381991 243.52606095 549.11539268 243.51858544 C548.43981239 243.51844495 547.7642321 243.51830445 547.06817967 243.51815969 C536.09632968 243.51586964 525.12447973 243.51343079 514.15262977 243.51097934 C470.63361132 243.50126624 427.11460518 243.50171706 383.59558678 243.51144052 C372.6293494 243.51388278 361.66311203 243.51630483 350.69687462 243.51858544 C350.02169649 243.51872634 349.34651836 243.51886724 348.65088028 243.5190124 C312.22426174 243.52656193 275.79764407 243.52490302 239.37102509 243.52021599 C234.25001717 243.51957451 229.12900925 243.51894884 224.00800133 243.51832986 C222.74699594 243.5181717 221.48599054 243.51801355 220.18677287 243.5178506 C201.10956173 243.51557168 182.03235536 243.51824359 162.95514488 243.52328897 C141.27251164 243.52899466 119.58989196 243.52760529 97.90726042 243.51672748 C85.75894049 243.5108346 73.61064989 243.51050066 61.46233069 243.51801983 C53.36211772 243.52248226 45.26192842 243.51975423 37.16171897 243.51101029 C32.53690682 243.50622247 27.91215323 243.50468815 23.28734279 243.51182225 C19.08854321 243.51823361 14.88985469 243.51561027 10.69106337 243.50546093 C9.17337306 243.50342955 7.65567377 243.50482293 6.1379905 243.50987281 C4.09200151 243.5162029 2.04598387 243.50920924 0 243.50139666 C-1.13727519 243.50126114 -2.27455039 243.50112562 -3.44628847 243.50098599 C-6.09386635 243.25069833 -6.09386635 243.25069833 -8.09386635 241.25069833 C-8.29209073 238.12152493 -8.3629691 235.0807054 -8.34783363 231.95028329 C-8.35095361 230.97401656 -8.3540736 229.99774982 -8.35728812 228.99189925 C-8.36530578 225.69985013 -8.35892984 222.40798341 -8.35265541 219.1159327 C-8.3553636 216.76423177 -8.35892356 214.41253168 -8.36327553 212.06083322 C-8.37242226 205.65810797 -8.36884588 199.25544692 -8.36251736 192.8527205 C-8.35718022 186.84280421 -8.36143595 180.83288912 -8.36437175 174.82297248 C-8.37007978 162.19428815 -8.36350975 149.56563282 -8.35277101 136.93695325 C-8.34383507 126.09246442 -8.34538698 115.24801841 -8.35460854 104.40353036 C-8.36530284 91.82115004 -8.36953041 79.23879516 -8.36338401 66.65641093 C-8.3602171 59.99188228 -8.3598697 53.32737934 -8.36645699 46.66285348 C-8.37221563 40.39862962 -8.36826081 34.13448696 -8.35666847 27.87027192 C-8.35401393 25.56515474 -8.35480041 23.26003077 -8.3591938 20.95491624 C-8.36461946 17.82022162 -8.35785153 14.68579094 -8.34783363 11.55111337 C-8.35229508 10.62836665 -8.35675652 9.70561993 -8.36135316 8.75491118 C-8.3150503 1.33934161 -7.34978147 0.0008758 0 0 Z " fill="#636E79" transform="translate(34.0938663482666,108.74930167198181)"/>
<path d="M0 0 C628.32 0 1256.64 0 1904 0 C1904 310.86 1904 621.72 1904 942 C1275.68 942 647.36 942 0 942 C0 935.4 0 928.8 0 922 C627.99 922 1255.98 922 1903 922 C1903 637.54 1903 353.08 1903 60 C1275.01 60 647.02 60 0 60 C0 40.2 0 20.4 0 0 Z " fill="#177AAB" transform="translate(0,0)"/>
<path d="M0 0 C0.74572266 -0.00386719 1.49144531 -0.00773437 2.25976562 -0.01171875 C7.81086499 -0.00163501 7.81086499 -0.00163501 8.9375 1.125 C9.00976502 2.97787502 9.0213122 4.83333878 9 6.6875 C8.99097656 7.69941406 8.98195313 8.71132812 8.97265625 9.75390625 C8.96105469 10.53636719 8.94945312 11.31882812 8.9375 12.125 C9.5975 12.125 10.2575 12.125 10.9375 12.125 C10.6075 13.445 10.2775 14.765 9.9375 16.125 C3.0075 16.125 -3.9225 16.125 -11.0625 16.125 C-11.0625 12.85725418 -10.93947545 9.69145882 -10.6875 6.4375 C-10.61789062 5.46425781 -10.54828125 4.49101563 -10.4765625 3.48828125 C-10.33992187 2.70839844 -10.20328125 1.92851563 -10.0625 1.125 C-6.88856311 -0.46196844 -3.48075795 -0.0181447 0 0 Z " fill="#5C6788" transform="translate(973.0625,88.875)"/>
<path d="M0 0 C5.28 0 10.56 0 16 0 C16 5.28 16 10.56 16 16 C10.72 16 5.44 16 0 16 C0 10.72 0 5.44 0 0 Z " fill="#F0F3F2" transform="translate(26,629)"/>
<path d="M0 0 C4.62 0 9.24 0 14 0 C13.67 4.95 13.34 9.9 13 15 C4.375 16.125 4.375 16.125 1 15 C-0.84862323 10.39428726 -0.05765477 4.84300082 0 0 Z " fill="#DDE5E9" transform="translate(26,359)"/>
<path d="M0 0 C4.62 0 9.24 0 14 0 C13.67 4.95 13.34 9.9 13 15 C4.375 16.125 4.375 16.125 1 15 C-0.84862323 10.39428726 -0.05765477 4.84300082 0 0 Z " fill="#9DA4B7" transform="translate(26,89)"/>
<path d="M0 0 C1.32 0 2.64 0 4 0 C4 5.61 4 11.22 4 17 C2.39125 17.061875 0.7825 17.12375 -0.875 17.1875 C-1.77992188 17.22230469 -2.68484375 17.25710937 -3.6171875 17.29296875 C-4.79667969 17.14794922 -4.79667969 17.14794922 -6 17 C-8.31282587 13.53076119 -8.42478586 12.07794425 -8 8 C-6.8125 6.125 -6.8125 6.125 -5 5 C-2.3125 4.8125 -2.3125 4.8125 0 5 C0 3.35 0 1.7 0 0 Z " fill="#E0EDEA" transform="translate(932,20)"/>
<path d="M0 0 C0.99 0 1.98 0 3 0 C3 5.61 3 11.22 3 17 C1.39125 17.061875 -0.2175 17.12375 -1.875 17.1875 C-2.77992188 17.22230469 -3.68484375 17.25710937 -4.6171875 17.29296875 C-5.79667969 17.14794922 -5.79667969 17.14794922 -7 17 C-9.31282587 13.53076119 -9.42478586 12.07794425 -9 8 C-7.8125 6.125 -7.8125 6.125 -6 5 C-3.3125 4.8125 -3.3125 4.8125 -1 5 C-0.67 3.35 -0.34 1.7 0 0 Z " fill="#EDF1F0" transform="translate(875,20)"/>
<path d="M0 0 C1.98 0 3.96 0 6 0 C6.66 1.32 7.32 2.64 8 4 C8.66 4 9.32 4 10 4 C9.67 2.68 9.34 1.36 9 0 C9.66 0 10.32 0 11 0 C11.66 1.32 12.32 2.64 13 4 C13.66 2.68 14.32 1.36 15 0 C15.66 0 16.32 0 17 0 C16.5247412 1.64696604 16.04468109 3.29254728 15.5625 4.9375 C15.29566406 5.85402344 15.02882813 6.77054688 14.75390625 7.71484375 C14 10 14 10 13 11 C10.81360547 11.07258946 8.62499611 11.08373783 6.4375 11.0625 C4.64119141 11.04896484 4.64119141 11.04896484 2.80859375 11.03515625 C1.88175781 11.02355469 0.95492187 11.01195312 0 11 C0 7.37 0 3.74 0 0 Z " fill="#2780B1" transform="translate(782,931)"/>
<path d="M0 0 C1.875 1.0625 1.875 1.0625 3 3 C3.3125 6.5625 3.3125 6.5625 3 10 C1 12 1 12 -2.4375 12.3125 C-6 12 -6 12 -7.9375 10.875 C-9.50422245 8.11019567 -9.38976435 6.11811483 -9 3 C-6.79086995 -0.68188342 -4.01844539 -0.50230567 0 0 Z " fill="#EFF3F2" transform="translate(861,25)"/>
<path d="M0 0 C3.0625 0.25 3.0625 0.25 6.0625 2.25 C6.42578125 4.125 6.42578125 4.125 6.375 6.25 C6.37113281 6.95125 6.36726562 7.6525 6.36328125 8.375 C6.0625 10.25 6.0625 10.25 4.0625 12.25 C-1.91466895 12.793379 -1.91466895 12.793379 -4.9375 11.1875 C-6.55397822 8.05557344 -5.72415296 5.57814714 -4.9375 2.25 C-2.9375 0.25 -2.9375 0.25 0 0 Z " fill="#DEEEF2" transform="translate(972.9375,24.75)"/>
<path d="M0 0 C0.9075 0.165 1.815 0.33 2.75 0.5 C5.92775121 0.9888848 7.91658201 0.70478125 11 0 C12 1 12 1 12.375 3.25 C11.83716605 7.19411565 10.05376277 8.57087053 7 11 C3 11 3 11 0.1875 8.25 C-2 5 -2 5 -1.875 2.6875 C-1 1 -1 1 0 0 Z " fill="#F9090F" transform="translate(1129,927)"/>
<path d="M0 0 C3.3 0 6.6 0 10 0 C10 0.99 10 1.98 10 3 C7.69 3 5.38 3 3 3 C3 3.99 3 4.98 3 6 C4.98 6 6.96 6 9 6 C9 6.99 9 7.98 9 9 C7.02 9 5.04 9 3 9 C3 10.32 3 11.64 3 13 C5.64 13 8.28 13 11 13 C11 13.99 11 14.98 11 16 C7.37 16 3.74 16 0 16 C0 10.72 0 5.44 0 0 Z " fill="#EDF2F4" transform="translate(911,21)"/>
<path d="M0 0 C1.875 1.25 1.875 1.25 3 3 C3 4.32 3 5.64 3 7 C0.36 7.33 -2.28 7.66 -5 8 C-1.52852158 8.74957157 -1.52852158 8.74957157 2 9 C2 9.99 2 10.98 2 12 C-5.35678392 12.36180905 -5.35678392 12.36180905 -8 10.875 C-9.47901666 8.10184376 -9.38601984 6.08815875 -9 3 C-6.79086995 -0.68188342 -4.01844539 -0.50230567 0 0 Z " fill="#F9F8F6" transform="translate(890,25)"/>
<path d="M0 0 C4.62 0 9.24 0 14 0 C13.67 3.63 13.34 7.26 13 11 C12.34 11 11.68 11 11 11 C9.875 5.25 9.875 5.25 11 3 C8.36 3 5.72 3 3 3 C3 3.66 3 4.32 3 5 C3.99 5.33 4.98 5.66 6 6 C5.01 6 4.02 6 3 6 C3 6.66 3 7.32 3 8 C4.98 8 6.96 8 9 8 C9 8.99 9 9.98 9 11 C7.68 11 6.36 11 5 11 C5 10.34 5 9.68 5 9 C4.01 9 3.02 9 2 9 C2 9.66 2 10.32 2 11 C1.34 11 0.68 11 0 11 C0 7.37 0 3.74 0 0 Z " fill="#E0E6E5" transform="translate(26,359)"/>
<path d="M0 0 C1.12535156 0.00580078 1.12535156 0.00580078 2.2734375 0.01171875 C3.02367187 0.00785156 3.77390625 0.00398438 4.546875 0 C10.14682697 0.01010822 10.14682697 0.01010822 11.2734375 1.13671875 C11.34570252 2.98959377 11.3572497 4.84505753 11.3359375 6.69921875 C11.32691406 7.71113281 11.31789063 8.72304687 11.30859375 9.765625 C11.29699219 10.54808594 11.28539062 11.33054687 11.2734375 12.13671875 C10.2834375 12.13671875 9.2934375 12.13671875 8.2734375 12.13671875 C8.2734375 9.16671875 8.2734375 6.19671875 8.2734375 3.13671875 C3.9834375 3.13671875 -0.3065625 3.13671875 -4.7265625 3.13671875 C-4.7265625 6.10671875 -4.7265625 9.07671875 -4.7265625 12.13671875 C-5.3865625 12.13671875 -6.0465625 12.13671875 -6.7265625 12.13671875 C-6.75343529 10.32429823 -6.77289965 8.51176642 -6.7890625 6.69921875 C-6.80066406 5.68988281 -6.81226563 4.68054688 -6.82421875 3.640625 C-6.64027836 -1.07560664 -4.11789652 0.00743303 0 0 Z " fill="#E3E8E9" transform="translate(970.7265625,88.86328125)"/>
<path d="M0 0 C2.5 0.25 2.5 0.25 4.5 2.25 C4.765625 4.125 4.765625 4.125 4.75 6.25 C4.75515625 6.95125 4.7603125 7.6525 4.765625 8.375 C4.5 10.25 4.5 10.25 2.5 12.25 C0 12.5 0 12.5 -2.5 12.25 C-4.5 10.25 -4.5 10.25 -4.765625 8.375 C-4.76046875 7.67375 -4.7553125 6.9725 -4.75 6.25 C-4.75515625 5.54875 -4.7603125 4.8475 -4.765625 4.125 C-4.31971142 0.97737476 -3.03899237 0.30389924 0 0 Z " fill="#DED2C1" transform="translate(994.5,91.75)"/>
<path d="M0 0 C4.62 0 9.24 0 14 0 C13.67 3.63 13.34 7.26 13 11 C12.34 11 11.68 11 11 11 C11 9.35 11 7.7 11 6 C9.02 6 7.04 6 5 6 C5 5.67 5 5.34 5 5 C6.98 5 8.96 5 11 5 C11 4.34 11 3.68 11 3 C8.36 3 5.72 3 3 3 C3 5.97 3 8.94 3 12 C2.01 11.67 1.02 11.34 0 11 C0 7.37 0 3.74 0 0 Z " fill="#E4E9E8" transform="translate(26,89)"/>
<path d="M0 0 C0.33 0.99 0.66 1.98 1 3 C-1.31 3.66 -3.62 4.32 -6 5 C-6 7.64 -6 10.28 -6 13 C-2.535 12.505 -2.535 12.505 1 12 C1 13.32 1 14.64 1 16 C-6.35678392 16.48241206 -6.35678392 16.48241206 -9 14.5 C-10.42804058 10.92989856 -10.6908363 7.78795633 -10 4 C-7.25492723 -0.22318887 -4.85423095 -0.44129372 0 0 Z " fill="#E8F2F4" transform="translate(848,21)"/>
<path d="M0 0 C0.99 0 1.98 0 3 0 C3 1.32 3 2.64 3 4 C4.98 4 6.96 4 9 4 C9 4.99 9 5.98 9 7 C7.02 7 5.04 7 3 7 C3.33 8.98 3.66 10.96 4 13 C5.65 13.33 7.3 13.66 9 14 C9 14.66 9 15.32 9 16 C5.625 16.125 5.625 16.125 2 16 C0 14 0 14 -0.125 10.375 C-0.08375 9.26125 -0.0425 8.1475 0 7 C-0.99 7 -1.98 7 -3 7 C-3 6.01 -3 5.02 -3 4 C-2.01 4 -1.02 4 0 4 C0 2.68 0 1.36 0 0 Z " fill="#D8ECF1" transform="translate(956,21)"/>
<path d="M0 0 C1.9375 0.75 1.9375 0.75 3.9375 2.75 C3.36057692 9.32692308 3.36057692 9.32692308 1.9375 10.75 C-0.5 10.9375 -0.5 10.9375 -3.0625 10.75 C-5.0625 8.75 -5.0625 8.75 -5.375 5.25 C-5.271875 4.095 -5.16875 2.94 -5.0625 1.75 C-2.0625 -0.25 -2.0625 -0.25 0 0 Z " fill="#B0CFD7" transform="translate(863.0625,928.25)"/>
<path d="M0 0 C6 0 6 0 8 1 C8.125 5.75 8.125 5.75 7 8 C7.39938767 10.09821215 7.39938767 10.09821215 8 12 C7.34 12 6.68 12 6 12 C5.34 10.35 4.68 8.7 4 7 C3.34 7 2.68 7 2 7 C2 8.65 2 10.3 2 12 C1.34 12 0.68 12 0 12 C0 8.04 0 4.08 0 0 Z " fill="#A3A2A8" transform="translate(124,632)"/>
<path d="M0 0 C0.99 0 1.98 0 3 0 C3.33 0.99 3.66 1.98 4 3 C4.66 2.01 5.32 1.02 6 0 C6.99 0 7.98 0 9 0 C9 3.96 9 7.92 9 12 C8.34 12 7.68 12 7 12 C6.67 10.68 6.34 9.36 6 8 C5.01 8.33 4.02 8.66 3 9 C2.67 9.99 2.34 10.98 2 12 C1.34 12 0.68 12 0 12 C0 8.04 0 4.08 0 0 Z " fill="#D1D8D4" transform="translate(67,92)"/>
<path d="M0 0 C1.875 0.8125 1.875 0.8125 2.875 2.8125 C3.0625 5.8125 3.0625 5.8125 2.875 8.8125 C0.875 10.8125 0.875 10.8125 -1.75 10.9375 C-2.53375 10.89625 -3.3175 10.855 -4.125 10.8125 C-5.52435013 8.01379973 -5.37765405 5.90751208 -5.125 2.8125 C-3.53964426 0.35519861 -2.94855732 -0.26016682 0 0 Z " fill="#C4DBE3" transform="translate(892.125,928.1875)"/>
<path d="M0 0 C7.59 0 15.18 0 23 0 C22.67 0.99 22.34 1.98 22 3 C15.07 3 8.14 3 1 3 C0.67 2.01 0.34 1.02 0 0 Z " fill="#F7FBFC" transform="translate(961,102)"/>
<path d="M0 0 C2.33294775 -0.04241723 4.66702567 -0.04092937 7 0 C8 1 8 1 8.25 3.4375 C8.1675 4.283125 8.085 5.12875 8 6 C5 8 5 8 2 8 C2 9.32 2 10.64 2 12 C1.34 12 0.68 12 0 12 C0 8.04 0 4.08 0 0 Z " fill="#A7B0C0" transform="translate(1023,92)"/>
<path d="M0 0 C1.4540625 0.0309375 1.4540625 0.0309375 2.9375 0.0625 C2.5625 2.5 2.5625 2.5 1.9375 5.0625 C0.9475 5.5575 0.9475 5.5575 -0.0625 6.0625 C0.9275 6.3925 1.9175 6.7225 2.9375 7.0625 C2.9375 8.3825 2.9375 9.7025 2.9375 11.0625 C0.2975 11.0625 -2.3425 11.0625 -5.0625 11.0625 C-4.92207123 9.41619672 -4.77500671 7.77045821 -4.625 6.125 C-4.54378906 5.20847656 -4.46257813 4.29195312 -4.37890625 3.34765625 C-3.89440408 -0.1515261 -3.64350125 0.07435717 0 0 Z " fill="#C4DDE6" transform="translate(825.0625,930.9375)"/>
<path d="M0 0 C6 0 6 0 8 1 C8 2.65 8 4.3 8 6 C6.02 6.66 4.04 7.32 2 8 C2 9.32 2 10.64 2 12 C1.34 12 0.68 12 0 12 C0 8.04 0 4.08 0 0 Z " fill="#797A85" transform="translate(146,632)"/>
<path d="M0 0 C1.32 0.33 2.64 0.66 4 1 C4.99 4.63 5.98 8.26 7 12 C6.01 11.67 5.02 11.34 4 11 C4 10.34 4 9.68 4 9 C2.35 9 0.7 9 -1 9 C-1 9.99 -1 10.98 -1 12 C-1.66 12 -2.32 12 -3 12 C-2.68950274 10.56206608 -2.3765224 9.1246682 -2.0625 7.6875 C-1.88847656 6.88699219 -1.71445313 6.08648438 -1.53515625 5.26171875 C-1 3 -1 3 0 0 Z " fill="#CDE5EC" transform="translate(83,632)"/>
<path d="M0 0 C1.32 0.33 2.64 0.66 4 1 C4.33 0.67 4.66 0.34 5 0 C6.66617115 -0.04063832 8.33388095 -0.042721 10 0 C10 0.99 10 1.98 10 3 C8.35 3.33 6.7 3.66 5 4 C4.67 6.64 4.34 9.28 4 12 C2.68 12 1.36 12 0 12 C0 8.04 0 4.08 0 0 Z " fill="#D3E9EE" transform="translate(983,25)"/>
<path d="M0 0 C0.99 0.33 1.98 0.66 3 1 C3.94921875 3.50390625 3.94921875 3.50390625 4.6875 6.5625 C5.06455078 8.08037109 5.06455078 8.08037109 5.44921875 9.62890625 C5.63097656 10.41136719 5.81273438 11.19382812 6 12 C5.34 12 4.68 12 4 12 C3.67 11.34 3.34 10.68 3 10 C0.97536745 9.34786708 0.97536745 9.34786708 -1 9 C-1.33 9.99 -1.66 10.98 -2 12 C-2.66 12 -3.32 12 -4 12 C-3.52494322 10.18641846 -3.04483958 8.37415821 -2.5625 6.5625 C-2.29566406 5.55316406 -2.02882812 4.54382813 -1.75390625 3.50390625 C-1 1 -1 1 0 0 Z " fill="#CACEC7" transform="translate(62,632)"/>
<path d="M0 0 C1.99954746 -0.04254356 4.00041636 -0.04080783 6 0 C7 1 7 1 7.0625 4.0625 C7.041875 5.031875 7.02125 6.00125 7 7 C5.35 7.33 3.7 7.66 2 8 C2 8.99 2 9.98 2 11 C1.34 11 0.68 11 0 11 C0 7.37 0 3.74 0 0 Z " fill="#DFEBE6" transform="translate(782,931)"/>
<path d="M0 0 C0.33 0 0.66 0 1 0 C1 3.63 1 7.26 1 11 C-0.99954746 11.04254356 -3.00041636 11.04080783 -5 11 C-6 10 -6 10 -6.125 7 C-6 4 -6 4 -5 3 C-3.33382885 2.95936168 -1.66611905 2.957279 0 3 C0 2.01 0 1.02 0 0 Z " fill="#DCBDC3" transform="translate(1095,928)"/>
<path d="M0 0 C5.28 0 10.56 0 16 0 C16 5.28 16 10.56 16 16 C14.02 15.34 12.04 14.68 10 14 C10.66 13.34 11.32 12.68 12 12 C11.34 11.67 10.68 11.34 10 11 C10 10.01 10 9.02 10 8 C11.32 8 12.64 8 14 8 C14.33 5.69 14.66 3.38 15 1 C10.05 1 5.1 1 0 1 C0 0.67 0 0.34 0 0 Z " fill="#E9D7CA" transform="translate(26,629)"/>
<path d="M0 0 C0.99 0 1.98 0 3 0 C3 5.61 3 11.22 3 17 C1.35 16.67 -0.3 16.34 -2 16 C-2 15.34 -2 14.68 -2 14 C-1.34 14 -0.68 14 0 14 C-0.185625 12.80375 -0.37125 11.6075 -0.5625 10.375 C-1.0311197 6.71716293 -0.81481013 3.62137834 0 0 Z " fill="#F6F3F0" transform="translate(875,20)"/>
<path d="M0 0 C0.66 0 1.32 0 2 0 C2 1.65 2 3.3 2 5 C3.32 5 4.64 5 6 5 C6 3.35 6 1.7 6 0 C6.66 0 7.32 0 8 0 C8 3.96 8 7.92 8 12 C7.34 12 6.68 12 6 12 C6 10.35 6 8.7 6 7 C4.68 7 3.36 7 2 7 C2 8.65 2 10.3 2 12 C1.34 12 0.68 12 0 12 C0 8.04 0 4.08 0 0 Z " fill="#DAE2DB" transform="translate(46,92)"/>
<path d="M0 0 C2.625 0.375 2.625 0.375 5 1 C6.125 5.75 6.125 5.75 5 8 C3.00045254 8.04254356 0.99958364 8.04080783 -1 8 C-2 7 -2 7 -2.1875 4.5625 C-2 2 -2 2 0 0 Z " fill="#DCEBEB" transform="translate(774,931)"/>
<path d="M0 0 C1.98 0 3.96 0 6 0 C6.33 0.66 6.66 1.32 7 2 C5.02 2 3.04 2 1 2 C2.93254772 4.0245738 4.63158688 5.42105792 7 7 C6.67 8.65 6.34 10.3 6 12 C3.69 12 1.38 12 -1 12 C-1 11.01 -1 10.02 -1 9 C1.97 9.495 1.97 9.495 5 10 C3.06745228 7.9754262 1.36841312 6.57894208 -1 5 C-0.67 3.35 -0.34 1.7 0 0 Z " fill="#CCD6DC" transform="translate(58,362)"/>
<path d="M0 0 C0.66 0 1.32 0 2 0 C2.33 3.3 2.66 6.6 3 10 C3.66 10 4.32 10 5 10 C5.33 6.7 5.66 3.4 6 0 C6.66 0 7.32 0 8 0 C8.02698189 1.62490954 8.04638757 3.24994633 8.0625 4.875 C8.07410156 5.77992187 8.08570313 6.68484375 8.09765625 7.6171875 C8 10 8 10 7 12 C5.00045254 12.04254356 2.99958364 12.04080783 1 12 C0 11 0 11 -0.09765625 8.49609375 C-0.08605469 7.48675781 -0.07445312 6.47742188 -0.0625 5.4375 C-0.05347656 4.42558594 -0.04445313 3.41367188 -0.03515625 2.37109375 C-0.02355469 1.58863281 -0.01195312 0.80617188 0 0 Z " fill="#DCDAC6" transform="translate(1034,92)"/>
<path d="M0 0 C2.64 0 5.28 0 8 0 C8 3.96 8 7.92 8 12 C7.01 12 6.02 12 5 12 C5 9.03 5 6.06 5 3 C3.35 3 1.7 3 0 3 C0 2.01 0 1.02 0 0 Z " fill="#E8F5F6" transform="translate(939,25)"/>
<path d="M0 0 C0.66 0 1.32 0 2 0 C2.33 1.32 2.66 2.64 3 4 C3.45375 3.34 3.9075 2.68 4.375 2 C4.91125 1.34 5.4475 0.68 6 0 C6.66 0 7.32 0 8 0 C7.608125 0.70125 7.21625 1.4025 6.8125 2.125 C5.64653899 5.11533935 5.64653899 5.11533935 7.375 8.3125 C7.91125 9.199375 8.4475 10.08625 9 11 C8.01 11 7.02 11 6 11 C4.3125 9 4.3125 9 3 7 C2.67 8.32 2.34 9.64 2 11 C1.34 11 0.68 11 0 11 C0 7.37 0 3.74 0 0 Z " fill="#C9B8C2" transform="translate(1012,928)"/>
<path d="M0 0 C0.66 0 1.32 0 2 0 C2.33 0.99 2.66 1.98 3 3 C3.99 2.01 4.98 1.02 6 0 C6.66 0.33 7.32 0.66 8 1 C7.62875 1.53625 7.2575 2.0725 6.875 2.625 C5.65142617 5.94612897 6.69536989 7.81090417 8 11 C7.34 11 6.68 11 6 11 C4.375 9 4.375 9 3 7 C2.67 8.32 2.34 9.64 2 11 C1.34 11 0.68 11 0 11 C0 7.37 0 3.74 0 0 Z " fill="#D0B9C2" transform="translate(945,928)"/>
<path d="M0 0 C2.31 0.33 4.62 0.66 7 1 C7 3.31 7 5.62 7 8 C4.69 8 2.38 8 0 8 C0 6.68 0 5.36 0 4 C1.32 3.34 2.64 2.68 4 2 C2.68 2 1.36 2 0 2 C0 1.34 0 0.68 0 0 Z " fill="#B6ACBE" transform="translate(984,931)"/>
<path d="M0 0 C2.97 0 5.94 0 9 0 C9 0.66 9 1.32 9 2 C8.01 2 7.02 2 6 2 C6 5.3 6 8.6 6 12 C5.01 12 4.02 12 3 12 C3 8.7 3 5.4 3 2 C2.01 2 1.02 2 0 2 C0 1.34 0 0.68 0 0 Z " fill="#AFC2C2" transform="translate(1044,92)"/>
<path d="M0 0 C2.5 0.125 2.5 0.125 3.5 1.125 C3.54092937 3.45797433 3.54241723 5.79205225 3.5 8.125 C1.19 8.125 -1.12 8.125 -3.5 8.125 C-3.5 6.805 -3.5 5.485 -3.5 4.125 C-2.84 3.795 -2.18 3.465 -1.5 3.125 C-2.16 2.465 -2.82 1.805 -3.5 1.125 C-2.5 0.125 -2.5 0.125 0 0 Z " fill="#D4B9C2" transform="translate(1073.5,930.875)"/>
<path d="M0 0 C2.5 0.125 2.5 0.125 3.5 1.125 C3.54092937 3.45797433 3.54241723 5.79205225 3.5 8.125 C1.19 8.125 -1.12 8.125 -3.5 8.125 C-3.5 6.805 -3.5 5.485 -3.5 4.125 C-2.84 3.795 -2.18 3.465 -1.5 3.125 C-2.16 2.465 -2.82 1.805 -3.5 1.125 C-2.5 0.125 -2.5 0.125 0 0 Z " fill="#D4B9C2" transform="translate(1025.5,930.875)"/>
<path d="M0 0 C0.99 0.33 1.98 0.66 3 1 C3.33 3.31 3.66 5.62 4 8 C4.66 8 5.32 8 6 8 C6.33 5.36 6.66 2.72 7 0 C7.66 0 8.32 0 9 0 C8.34 3.63 7.68 7.26 7 11 C5.68 11.33 4.36 11.66 3 12 C2.01 8.04 1.02 4.08 0 0 Z " fill="#C8D4D1" transform="translate(69,632)"/>
<path d="M0 0 C1.65 0 3.3 0 5 0 C5.33 0.66 5.66 1.32 6 2 C4.35 2 2.7 2 1 2 C2.93254772 4.0245738 4.63158688 5.42105792 7 7 C7 8.32 7 9.64 7 11 C4.29120665 12.35439668 1.99066732 12.06501451 -1 12 C-1.33 11.34 -1.66 10.68 -2 10 C-0.02 10 1.96 10 4 10 C4 9.34 4 8.68 4 8 C1.53673288 6.3553326 1.53673288 6.3553326 -1 5 C-0.67 3.35 -0.34 1.7 0 0 Z " fill="#DFDCD7" transform="translate(104,632)"/>
<path d="M0 0 C1.65 0 3.3 0 5 0 C5.33 0.66 5.66 1.32 6 2 C4.35 2 2.7 2 1 2 C2.93254772 4.0245738 4.63158688 5.42105792 7 7 C6.67 8.65 6.34 10.3 6 12 C3.69 12 1.38 12 -1 12 C-1.33 11.34 -1.66 10.68 -2 10 C-0.02 10 1.96 10 4 10 C4 9.34 4 8.68 4 8 C1.53673288 6.3553326 1.53673288 6.3553326 -1 5 C-0.67 3.35 -0.34 1.7 0 0 Z " fill="#DEE0DC" transform="translate(69,362)"/>
<path d="M0 0 C0.66 0 1.32 0 2 0 C2 1.32 2 2.64 2 4 C3.65 4.33 5.3 4.66 7 5 C7 7.31 7 9.62 7 12 C6.34 12 5.68 12 5 12 C5 10.02 5 8.04 5 6 C4.01 6 3.02 6 2 6 C2 7.98 2 9.96 2 12 C1.34 12 0.68 12 0 12 C0 8.04 0 4.08 0 0 Z " fill="#CDE5E3" transform="translate(830,927)"/>
<path d="M0 0 C2.31 0 4.62 0 7 0 C7.02687279 1.81242052 7.04633715 3.62495233 7.0625 5.4375 C7.07410156 6.44683594 7.08570313 7.45617187 7.09765625 8.49609375 C7 11 7 11 6 12 C4.00041636 12.04080783 1.99954746 12.04254356 0 12 C0 11.01 0 10.02 0 9 C1.65 9.33 3.3 9.66 5 10 C5 7.36 5 4.72 5 2 C3.35 2 1.7 2 0 2 C0 1.34 0 0.68 0 0 Z " fill="#D1D5D4" transform="translate(49,632)"/>
<path d="M0 0 C3.96 0 7.92 0 12 0 C12 1.32 12 2.64 12 4 C9.525 3.01 9.525 3.01 7 2 C7.33 2.99 7.66 3.98 8 5 C7.34 5.66 6.68 6.32 6 7 C6 6.34 6 5.68 6 5 C5.34 4.67 4.68 4.34 4 4 C4.33 3.34 4.66 2.68 5 2 C2.525 3.485 2.525 3.485 0 5 C0 3.35 0 1.7 0 0 Z " fill="#0E1F54" transform="translate(967,92)"/>
<path d="M0 0 C1.2065625 0.0309375 1.2065625 0.0309375 2.4375 0.0625 C2.7675 1.7125 3.0975 3.3625 3.4375 5.0625 C1.7875 5.0625 0.1375 5.0625 -1.5625 5.0625 C-1.5625 5.7225 -1.5625 6.3825 -1.5625 7.0625 C0.0875 6.7325 1.7375 6.4025 3.4375 6.0625 C3.4375 6.7225 3.4375 7.3825 3.4375 8.0625 C1.43795254 8.10504356 -0.56291636 8.10330783 -2.5625 8.0625 C-3.5625 7.0625 -3.5625 7.0625 -3.6875 4.0625 C-3.52180824 0.08589776 -3.52180824 0.08589776 0 0 Z " fill="#C2B1BF" transform="translate(1102.5625,930.9375)"/>
<path d="M0 0 C2.64 0 5.28 0 8 0 C8 0.66 8 1.32 8 2 C7.01 2.495 7.01 2.495 6 3 C6.33 3.33 6.66 3.66 7 4 C7.04063832 5.66617115 7.042721 7.33388095 7 9 C4.69 9 2.38 9 0 9 C0 8.01 0 7.02 0 6 C0.66 6 1.32 6 2 6 C2 6.66 2 7.32 2 8 C3.32 8 4.64 8 6 8 C6 7.01 6 6.02 6 5 C4.02 5 2.04 5 0 5 C0 3.35 0 1.7 0 0 Z " fill="#3E3659" transform="translate(29,362)"/>
<path d="M0 0 C0.66 0.33 1.32 0.66 2 1 C1.7525 2.0725 1.505 3.145 1.25 4.25 C0.57571378 8.02745496 0.57571378 8.02745496 2.9375 10.4375 C3.618125 10.953125 4.29875 11.46875 5 12 C2.125 12.1875 2.125 12.1875 -1 12 C-3.31282587 8.53076119 -3.42478586 7.07794425 -3 3 C-1.5 1.125 -1.5 1.125 0 0 Z " fill="#DEF3F7" transform="translate(927,25)"/>
<path d="M0 0 C0.99 0 1.98 0 3 0 C4.125 6.625 4.125 6.625 3 10 C2.34 10 1.68 10 1 10 C1 9.01 1 8.02 1 7 C-0.65 7 -2.3 7 -4 7 C-2.79618552 4.50638429 -1.54571278 2.31856917 0 0 Z " fill="#C3DCE7" transform="translate(910,929)"/>
<path d="M0 0 C0.78375 0.04125 1.5675 0.0825 2.375 0.125 C2.705 0.785 3.035 1.445 3.375 2.125 C1.725 2.455 0.075 2.785 -1.625 3.125 C-1.625 5.105 -1.625 7.085 -1.625 9.125 C-0.635 9.455 0.355 9.785 1.375 10.125 C2.365 10.455 3.355 10.785 4.375 11.125 C3.375 12.125 3.375 12.125 0.4375 12.3125 C-2.625 12.125 -2.625 12.125 -4.625 10.125 C-4.890625 8.25 -4.890625 8.25 -4.875 6.125 C-4.88015625 5.42375 -4.8853125 4.7225 -4.890625 4 C-4.43038182 0.75122461 -3.13681296 0.14937205 0 0 Z " fill="#E3E4DF" transform="translate(117.625,631.875)"/>
<path d="M0 0 C2.64 0 5.28 0 8 0 C8 0.66 8 1.32 8 2 C7.01 2 6.02 2 5 2 C5 4.97 5 7.94 5 11 C5.99 11.33 6.98 11.66 8 12 C5.36 12 2.72 12 0 12 C0.99 11.67 1.98 11.34 3 11 C3 8.03 3 5.06 3 2 C2.01 2 1.02 2 0 2 C0 1.34 0 0.68 0 0 Z " fill="#E0DFD6" transform="translate(135,632)"/>
<path d="M0 0 C0.78375 0.04125 1.5675 0.0825 2.375 0.125 C2.705 0.785 3.035 1.445 3.375 2.125 C1.725 2.455 0.075 2.785 -1.625 3.125 C-1.625 5.105 -1.625 7.085 -1.625 9.125 C-0.635 9.455 0.355 9.785 1.375 10.125 C2.365 10.455 3.355 10.785 4.375 11.125 C3.375 12.125 3.375 12.125 0.4375 12.3125 C-2.625 12.125 -2.625 12.125 -4.625 10.125 C-4.890625 8.25 -4.890625 8.25 -4.875 6.125 C-4.88015625 5.42375 -4.8853125 4.7225 -4.890625 4 C-4.43038182 0.75122461 -3.13681296 0.14937205 0 0 Z " fill="#E3E4DF" transform="translate(50.625,361.875)"/>
<path d="M0 0 C0.66 0 1.32 0 2 0 C2.33 3.3 2.66 6.6 3 10 C3.99 9.67 4.98 9.34 6 9 C6.33 6.03 6.66 3.06 7 0 C7.33 0 7.66 0 8 0 C8.02687279 1.81242052 8.04633715 3.62495233 8.0625 5.4375 C8.07410156 6.44683594 8.08570313 7.45617187 8.09765625 8.49609375 C8 11 8 11 7 12 C5.00041636 12.04080783 2.99954746 12.04254356 1 12 C-0.26237731 9.47524538 -0.09856404 7.68799534 -0.0625 4.875 C-0.05347656 3.96492188 -0.04445313 3.05484375 -0.03515625 2.1171875 C-0.02355469 1.41851562 -0.01195312 0.71984375 0 0 Z " fill="#D8E9E9" transform="translate(1001,92)"/>
<path d="M0 0 C5.71428571 0.71428571 5.71428571 0.71428571 7 2 C7.14115161 4.67058851 7.04247107 7.32432238 7 10 C5.02 10.99 5.02 10.99 3 12 C3 9.03 3 6.06 3 3 C1.68 2.34 0.36 1.68 -1 1 C-0.67 0.67 -0.34 0.34 0 0 Z " fill="#F2EFEB" transform="translate(972,25)"/>
<path d="M0 0 C0.625 1.8125 0.625 1.8125 1 4 C0.01 5.485 0.01 5.485 -1 7 C-0.34 7.33 0.32 7.66 1 8 C1 8.66 1 9.32 1 10 C-1.31 10 -3.62 10 -6 10 C-4.50163895 6.88801935 -2.80066242 3.9465385 -1 1 C-2.65 1.33 -4.3 1.66 -6 2 C-6 1.34 -6 0.68 -6 0 C-3.50907189 -1.24546405 -2.58919267 -0.7767578 0 0 Z " fill="#C7DDE3" transform="translate(884,929)"/>
<path d="M0 0 C0.125 2.875 0.125 2.875 0 6 C-2 8 -2 8 -5.125 8.125 C-6.548125 8.063125 -6.548125 8.063125 -8 8 C-6.48291727 4.46014029 -4.24676932 0 0 0 Z " fill="#737C85" transform="translate(942,884)"/>
<path d="M0 0 C3.3 0 6.6 0 10 0 C10 0.66 10 1.32 10 2 C8.68 2 7.36 2 6 2 C6 5.3 6 8.6 6 12 C5.34 12 4.68 12 4 12 C4 8.7 4 5.4 4 2 C2.68 2 1.36 2 0 2 C0 1.34 0 0.68 0 0 Z " fill="#C1D7E1" transform="translate(155,632)"/>
<path d="M0 0 C0.125 2.875 0.125 2.875 0 6 C-2 8 -2 8 -5.125 8.125 C-6.548125 8.063125 -6.548125 8.063125 -8 8 C-6.48291727 4.46014029 -4.24676932 0 0 0 Z " fill="#737C85" transform="translate(942,614)"/>
<path d="M0 0 C0.125 2.875 0.125 2.875 0 6 C-2 8 -2 8 -5.125 8.125 C-6.548125 8.063125 -6.548125 8.063125 -8 8 C-6.48291727 4.46014029 -4.24676932 0 0 0 Z " fill="#737C85" transform="translate(942,344)"/>
<path d="M0 0 C3.3 0 6.6 0 10 0 C10 0.66 10 1.32 10 2 C8.68 2 7.36 2 6 2 C6 5.3 6 8.6 6 12 C5.34 12 4.68 12 4 12 C4 8.7 4 5.4 4 2 C2.68 2 1.36 2 0 2 C0 1.34 0 0.68 0 0 Z " fill="#D6DAD8" transform="translate(1011,92)"/>
<path d="M0 0 C3.3 0 6.6 0 10 0 C10 0.66 10 1.32 10 2 C8.68 2 7.36 2 6 2 C6 5.3 6 8.6 6 12 C5.34 12 4.68 12 4 12 C4 8.7 4 5.4 4 2 C2.68 2 1.36 2 0 2 C0 1.34 0 0.68 0 0 Z " fill="#D9D7CE" transform="translate(56,92)"/>
<path d="M0 0 C0.66 0 1.32 0 2 0 C2.66 1.32 3.32 2.64 4 4 C4.66 2.68 5.32 1.36 6 0 C6.66 0 7.32 0 8 0 C7.01 3.3 6.02 6.6 5 10 C3.35 10.33 1.7 10.66 0 11 C0.66 10.34 1.32 9.68 2 9 C1.72965366 6.56282742 1.72965366 6.56282742 1 4 C0.814375 3.236875 0.62875 2.47375 0.4375 1.6875 C0.293125 1.130625 0.14875 0.57375 0 0 Z " fill="#CCE2E4" transform="translate(791,931)"/>
<path d="M0 0 C2.33294775 -0.04241723 4.66702567 -0.04092937 7 0 C8 1 8 1 8.0625 4.5625 C8.041875 5.696875 8.02125 6.83125 8 8 C7.34 8 6.68 8 6 8 C5.67 6.02 5.34 4.04 5 2 C4.01 2 3.02 2 2 2 C2 3.98 2 5.96 2 8 C1.34 8 0.68 8 0 8 C0 5.36 0 2.72 0 0 Z " fill="#D9B7BD" transform="translate(1079,931)"/>
<path d="M0 0 C2.33294775 -0.04241723 4.66702567 -0.04092937 7 0 C8 1 8 1 8.0625 4.5625 C8.041875 5.696875 8.02125 6.83125 8 8 C7.34 8 6.68 8 6 8 C5.67 6.02 5.34 4.04 5 2 C4.01 2 3.02 2 2 2 C2 3.98 2 5.96 2 8 C1.34 8 0.68 8 0 8 C0 5.36 0 2.72 0 0 Z " fill="#D9B7BD" transform="translate(1031,931)"/>
<path d="M0 0 C2.475 0.495 2.475 0.495 5 1 C5 2.98 5 4.96 5 7 C3.0625 7.5625 3.0625 7.5625 1 8 C0 7 0 7 -0.0625 3.4375 C-0.041875 2.303125 -0.02125 1.16875 0 0 Z " fill="#151C4C" transform="translate(992,94)"/>
<path d="M0 0 C1.32 0.66 2.64 1.32 4 2 C4 3.65 4 5.3 4 7 C2.125 7.625 2.125 7.625 0 8 C-0.66 7.34 -1.32 6.68 -2 6 C-1.44444444 1.44444444 -1.44444444 1.44444444 0 0 Z " fill="#3184B5" transform="translate(857,27)"/>
<path d="M0 0 C0.66 0 1.32 0 2 0 C2.33 1.65 2.66 3.3 3 5 C3.66 5 4.32 5 5 5 C5.33 3.35 5.66 1.7 6 0 C6.66 0 7.32 0 8 0 C7.52269162 1.4589426 7.04308958 2.91713496 6.5625 4.375 C6.29566406 5.18710937 6.02882813 5.99921875 5.75390625 6.8359375 C5 9 5 9 4 11 C2.68 10.67 1.36 10.34 0 10 C0.66 9.67 1.32 9.34 2 9 C1.34 6.03 0.68 3.06 0 0 Z " fill="#D2B6BF" transform="translate(993,931)"/>
<path d="M0 0 C0.66 0 1.32 0 2 0 C2.66 1.32 3.32 2.64 4 4 C4.66 2.68 5.32 1.36 6 0 C6.66 0 7.32 0 8 0 C7.01 3.3 6.02 6.6 5 10 C3.35 10.33 1.7 10.66 0 11 C0.99 10.67 1.98 10.34 3 10 C2.01 6.7 1.02 3.4 0 0 Z " fill="#D2B6BF" transform="translate(1108,931)"/>
<path d="M0 0 C0.6875 2.3125 0.6875 2.3125 1 5 C-0.4375 6.8125 -0.4375 6.8125 -2 8 C-0.68 8.66 0.64 9.32 2 10 C-0.64 10 -3.28 10 -6 10 C-5.0409375 8.6078125 -5.0409375 8.6078125 -4.0625 7.1875 C-1.91377907 4.15780057 -1.91377907 4.15780057 -1 1 C-2.65 1.33 -4.3 1.66 -6 2 C-6 1.34 -6 0.68 -6 0 C-3.50907189 -1.24546405 -2.58919267 -0.7767578 0 0 Z " fill="#D6E6E9" transform="translate(903,929)"/>
<path d="M0 0 C1.1446875 0.3403125 1.1446875 0.3403125 2.3125 0.6875 C2.3125 1.0175 2.3125 1.3475 2.3125 1.6875 C0.6625 2.0175 -0.9875 2.3475 -2.6875 2.6875 C-2.6875 4.3375 -2.6875 5.9875 -2.6875 7.6875 C-1.0375 8.0175 0.6125 8.3475 2.3125 8.6875 C2.3125 9.3475 2.3125 10.0075 2.3125 10.6875 C-0.5625 10.875 -0.5625 10.875 -3.6875 10.6875 C-5.84252531 7.45496204 -6.15606135 6.43599077 -5.6875 2.6875 C-3.93031165 -0.08700791 -3.30350824 -0.38412887 0 0 Z " fill="#CEEAF0" transform="translate(767.6875,928.3125)"/>
<path d="M0 0 C1.65 0 3.3 0 5 0 C5 1.98 5 3.96 5 6 C3.0625 6.5625 3.0625 6.5625 1 7 C0 6 0 6 -0.0625 2.9375 C-0.041875 1.968125 -0.02125 0.99875 0 0 Z " fill="#2281B5" transform="translate(971,28)"/>
<path d="M0 0 C1.98 0 3.96 0 6 0 C6 0.33 6 0.66 6 1 C4.35 1 2.7 1 1 1 C1 2.65 1 4.3 1 6 C2.98 5.67 4.96 5.34 7 5 C7 5.66 7 6.32 7 7 C5.35 7.33 3.7 7.66 2 8 C2 9.32 2 10.64 2 12 C1.34 12 0.68 12 0 12 C0 8.04 0 4.08 0 0 Z " fill="#E7E5D9" transform="translate(146,632)"/>
<path d="M0 0 C0.99 0.33 1.98 0.66 3 1 C3 2.98 3 4.96 3 7 C1.68 7 0.36 7 -1 7 C-1.625 4.625 -1.625 4.625 -2 2 C-1.34 1.34 -0.68 0.68 0 0 Z " fill="#3380AE" transform="translate(929,27)"/>
<path d="M0 0 C1.65 0 3.3 0 5 0 C5 1.98 5 3.96 5 6 C3.0625 6.5625 3.0625 6.5625 1 7 C0 6 0 6 -0.0625 2.9375 C-0.041875 1.968125 -0.02125 0.99875 0 0 Z " fill="#1F8AB9" transform="translate(870,28)"/>
<path d="M0 0 C0.33 0 0.66 0 1 0 C1.33 2.31 1.66 4.62 2 7 C3.65 7.33 5.3 7.66 7 8 C7 8.66 7 9.32 7 10 C4.66705225 10.04241723 2.33297433 10.04092937 0 10 C-1 9 -1 9 -1.1328125 7.1875 C-1.13023437 6.465625 -1.12765625 5.74375 -1.125 5 C-1.12757813 4.278125 -1.13015625 3.55625 -1.1328125 2.8125 C-1 1 -1 1 0 0 Z " fill="#FBF9F5" transform="translate(958,27)"/>
<path d="M0 0 C0.66 0 1.32 0 2 0 C2 0.66 2 1.32 2 2 C3.32 2.33 4.64 2.66 6 3 C4.68 3 3.36 3 2 3 C2.27034634 5.43717258 2.27034634 5.43717258 3 8 C3.99 8.66 4.98 9.32 6 10 C4.33388095 10.042721 2.66617115 10.04063832 1 10 C0 9 0 9 -0.0625 5.9375 C-0.041875 4.968125 -0.02125 3.99875 0 3 C-0.66 2.67 -1.32 2.34 -2 2 C-1.34 2 -0.68 2 0 2 C0 1.34 0 0.68 0 0 Z " fill="#DAECF0" transform="translate(841,929)"/>
<path d="M0 0 C0.99 0.33 1.98 0.66 3 1 C3 3.31 3 5.62 3 8 C1.68 8 0.36 8 -1 8 C-1.04241723 5.66705225 -1.04092937 3.33297433 -1 1 C-0.67 0.67 -0.34 0.34 0 0 Z " fill="#B5B9C0" transform="translate(62,632)"/>
<path d="M0 0 C1.98 0 3.96 0 6 0 C6.33 1.65 6.66 3.3 7 5 C6.67 4.01 6.34 3.02 6 2 C4.68 2 3.36 2 2 2 C1.67 5.3 1.34 8.6 1 12 C0.67 12 0.34 12 0 12 C0 8.04 0 4.08 0 0 Z " fill="#D0E4EB" transform="translate(124,632)"/>
<path d="M0 0 C2.4375 0.8125 2.4375 0.8125 5 2 C5.33 2.99 5.66 3.98 6 5 C4.00045254 5.04254356 1.99958364 5.04080783 0 5 C-0.33 4.67 -0.66 4.34 -1 4 C-1.33 5.65 -1.66 7.3 -2 9 C-2.33 9 -2.66 9 -3 9 C-3.36923077 3.46153846 -3.36923077 3.46153846 -1.5 1.125 C-1.005 0.75375 -0.51 0.3825 0 0 Z " fill="#89C1DB" transform="translate(884,25)"/>
<path d="M0 0 C0.66 0 1.32 0 2 0 C2 0.66 2 1.32 2 2 C3.32 2.33 4.64 2.66 6 3 C4.68 3 3.36 3 2 3 C2 4.98 2 6.96 2 9 C3.32 9.33 4.64 9.66 6 10 C4.33388095 10.042721 2.66617115 10.04063832 1 10 C0 9 0 9 -0.0625 5.9375 C-0.041875 4.968125 -0.02125 3.99875 0 3 C-0.66 2.67 -1.32 2.34 -2 2 C-1.34 2 -0.68 2 0 2 C0 1.34 0 0.68 0 0 Z " fill="#E2BFC3" transform="translate(1043,929)"/>
<path d="M0 0 C2.4375 0.1875 2.4375 0.1875 3.4375 1.1875 C3.47842937 3.52047433 3.47991723 5.85455225 3.4375 8.1875 C3.1075 8.1875 2.7775 8.1875 2.4375 8.1875 C2.1075 6.5375 1.7775 4.8875 1.4375 3.1875 C0.1175 2.8575 -1.2025 2.5275 -2.5625 2.1875 C-2.8925 4.8275 -3.2225 7.4675 -3.5625 10.1875 C-3.8925 10.1875 -4.2225 10.1875 -4.5625 10.1875 C-4.7578125 4.1328125 -4.7578125 4.1328125 -4.5625 2.1875 C-2.5625 0.1875 -2.5625 0.1875 0 0 Z " fill="#CCE4EF" transform="translate(994.5625,91.8125)"/>
<path d="M0 0 C2.475 0.99 2.475 0.99 5 2 C5 3.65 5 5.3 5 7 C3.35 6.67 1.7 6.34 0 6 C0 4.02 0 2.04 0 0 Z " fill="#7A7B89" transform="translate(974,94)"/>
<path d="M0 0 C1.485 0.99 1.485 0.99 3 2 C6.12521833 2.16699232 6.12521833 2.16699232 9 2 C9 2.99 9 3.98 9 5 C1.25 5.125 1.25 5.125 -1 4 C-0.67 2.68 -0.34 1.36 0 0 Z " fill="#EAF1F2" transform="translate(883,32)"/>
<path d="M0 0 C2.31 0 4.62 0 7 0 C7 0.66 7 1.32 7 2 C5.68 2.33 4.36 2.66 3 3 C2.67 4.65 2.34 6.3 2 8 C1.34 8 0.68 8 0 8 C0 5.36 0 2.72 0 0 Z " fill="#D0E1E3" transform="translate(802,931)"/>
<path d="M0 0 C2.475 0.495 2.475 0.495 5 1 C5 2.65 5 4.3 5 6 C3.68 6.33 2.36 6.66 1 7 C0.67 6.34 0.34 5.68 0 5 C0.66 4.67 1.32 4.34 2 4 C1.34 3.67 0.68 3.34 0 3 C0 2.01 0 1.02 0 0 Z " fill="#868DAD" transform="translate(36,637)"/>
<path d="M0 0 C0.33 0 0.66 0 1 0 C1 1.65 1 3.3 1 5 C3.31 5.33 5.62 5.66 8 6 C8 6.99 8 7.98 8 9 C5.6568787 8.74438677 3.32156597 8.40729228 1 8 C-0.35439668 5.29120665 -0.06501451 2.99066732 0 0 Z " fill="#D8F2F9" transform="translate(852,28)"/>
<path d="M0 0 C1.98 0.495 1.98 0.495 4 1 C3.67 2.98 3.34 4.96 3 7 C2.01 7 1.02 7 0 7 C-0.93423645 3.98968256 -1.04449911 3.13349732 0 0 Z " fill="#96A2B1" transform="translate(83,632)"/>
<path d="M0 0 C0.33 0.66 0.66 1.32 1 2 C3.02463255 2.65213292 3.02463255 2.65213292 5 3 C4.67 4.32 4.34 5.64 4 7 C2.68 7 1.36 7 0 7 C0 4.69 0 2.38 0 0 Z " fill="#C6D5DE" transform="translate(1014,30)"/>
<path d="M0 0 C0 0.99 0 1.98 0 3 C-1.98 3.33 -3.96 3.66 -6 4 C-6.33 5.65 -6.66 7.3 -7 9 C-7.33 9 -7.66 9 -8 9 C-8.36190476 3.57142857 -8.36190476 3.57142857 -6.8125 1.125 C-4.43963721 -0.34781139 -2.74086056 -0.22223194 0 0 Z " fill="#CCECF7" transform="translate(874,25)"/>
<path d="M0 0 C0.33 0 0.66 0 1 0 C1 3.3 1 6.6 1 10 C0.67 9.01 0.34 8.02 0 7 C-1.98 7 -3.96 7 -6 7 C-3 5 -3 5 -1 5 C-0.67 3.35 -0.34 1.7 0 0 Z " fill="#377DAC" transform="translate(828,931)"/>
<path d="M0 0 C0.99 0.33 1.98 0.66 3 1 C3.6875 3.0625 3.6875 3.0625 4 5 C2.02 5 0.04 5 -2 5 C-2 3.68 -2 2.36 -2 1 C-1.34 0.67 -0.68 0.34 0 0 Z " fill="#99A5BB" transform="translate(1072,934)"/>
<path d="M0 0 C0.99 0.33 1.98 0.66 3 1 C3.6875 3.0625 3.6875 3.0625 4 5 C2.02 5 0.04 5 -2 5 C-2 3.68 -2 2.36 -2 1 C-1.34 0.67 -0.68 0.34 0 0 Z " fill="#99A5BB" transform="translate(1024,934)"/>
<path d="M0 0 C2.475 0.495 2.475 0.495 5 1 C5.33 1.99 5.66 2.98 6 4 C3 5 3 5 0 4 C0 2.68 0 1.36 0 0 Z " fill="#708FB4" transform="translate(1062,930)"/>
<path d="M0 0 C3 0 3 0 5 1 C4.67 1.99 4.34 2.98 4 4 C4.33 4.99 4.66 5.98 5 7 C3.33333333 7 1.66666667 7 0 7 C0 4.69 0 2.38 0 0 Z " fill="#DBE9E9" transform="translate(1032,30)"/>
<path d="M0 0 C0.99 0.33 1.98 0.66 3 1 C3 3.31 3 5.62 3 8 C2.01 7.67 1.02 7.34 0 7 C0 5.68 0 4.36 0 3 C-0.66 2.34 -1.32 1.68 -2 1 C-1.34 0.67 -0.68 0.34 0 0 Z " fill="#3586B8" transform="translate(862,929)"/>
<path d="M0 0 C0.99 0.33 1.98 0.66 3 1 C2.67 2.65 2.34 4.3 2 6 C1.01 5.67 0.02 5.34 -1 5 C-0.67 3.35 -0.34 1.7 0 0 Z " fill="#2382B8" transform="translate(775,932)"/>
<path d="M0 0 C0.598125 0.20625 1.19625 0.4125 1.8125 0.625 C0.8225 0.955 -0.1675 1.285 -1.1875 1.625 C-0.5275 2.285 0.1325 2.945 0.8125 3.625 C-0.5075 3.625 -1.8275 3.625 -3.1875 3.625 C-3.5175 4.945 -3.8475 6.265 -4.1875 7.625 C-4.5175 5.645 -4.8475 3.665 -5.1875 1.625 C-2.1875 -0.375 -2.1875 -0.375 0 0 Z " fill="#9ACFE4" transform="translate(863.1875,928.375)"/>
<path d="M0 0 C0.78375 0.04125 1.5675 0.0825 2.375 0.125 C2.705 0.785 3.035 1.445 3.375 2.125 C1.725 2.455 0.075 2.785 -1.625 3.125 C-1.955 4.775 -2.285 6.425 -2.625 8.125 C-2.955 8.125 -3.285 8.125 -3.625 8.125 C-4.25 5.25 -4.25 5.25 -4.625 2.125 C-2.625 0.125 -2.625 0.125 0 0 Z " fill="#D3CEC3" transform="translate(117.625,631.875)"/>
<path d="M0 0 C0.33 0.66 0.66 1.32 1 2 C3.31 2 5.62 2 8 2 C8 2.99 8 3.98 8 5 C6.68 5 5.36 5 4 5 C4 4.34 4 3.68 4 3 C3.01 3 2.02 3 1 3 C0.67 3.66 0.34 4.32 0 5 C0 3.35 0 1.7 0 0 Z " fill="#F3F2F0" transform="translate(27,365)"/>
<path d="M0 0 C0.78375 0.04125 1.5675 0.0825 2.375 0.125 C2.705 0.785 3.035 1.445 3.375 2.125 C1.725 2.455 0.075 2.785 -1.625 3.125 C-1.955 4.775 -2.285 6.425 -2.625 8.125 C-2.955 8.125 -3.285 8.125 -3.625 8.125 C-4.25 5.25 -4.25 5.25 -4.625 2.125 C-2.625 0.125 -2.625 0.125 0 0 Z " fill="#D3CEC3" transform="translate(50.625,361.875)"/>
<path d="M0 0 C2.64 0 5.28 0 8 0 C8 0.66 8 1.32 8 2 C6.35 2.66 4.7 3.32 3 4 C3 3.34 3 2.68 3 2 C2.01 2 1.02 2 0 2 C0 1.34 0 0.68 0 0 Z " fill="#49597D" transform="translate(29,362)"/>
<path d="M0 0 C1.32 0 2.64 0 4 0 C3.67 1.65 3.34 3.3 3 5 C2.01 5 1.02 5 0 5 C0 3.35 0 1.7 0 0 Z " fill="#278FBD" transform="translate(784,933)"/>
<path d="M0 0 C1.98 0 3.96 0 6 0 C6 0.99 6 1.98 6 3 C4.02 3.33 2.04 3.66 0 4 C0 2.68 0 1.36 0 0 Z " fill="#CFC9C9" transform="translate(29,97)"/>
<path d="M0 0 C1.2065625 0.0309375 1.2065625 0.0309375 2.4375 0.0625 C2.4375 1.0525 2.4375 2.0425 2.4375 3.0625 C0.4575 3.3925 -1.5225 3.7225 -3.5625 4.0625 C-3.5625 0.08689024 -3.5625 0.08689024 0 0 Z " fill="#E6F1F5" transform="translate(990.5625,24.9375)"/>
<path d="M0 0 C0.66 0.33 1.32 0.66 2 1 C1.34 3.31 0.68 5.62 0 8 C-0.66 8 -1.32 8 -2 8 C-2.125 5.125 -2.125 5.125 -2 2 C-1.34 1.34 -0.68 0.68 0 0 Z " fill="#F3FAF9" transform="translate(855,25)"/>
<path d="M0 0 C1.67542976 0.28604898 3.34385343 0.61781233 5 1 C5.625 2.8125 5.625 2.8125 6 5 C5.01 6.485 5.01 6.485 4 8 C3.9175 7.21625 3.835 6.4325 3.75 5.625 C3.27193661 2.85250896 3.27193661 2.85250896 0.9375 1.6875 C0.298125 1.460625 -0.34125 1.23375 -1 1 C-0.67 0.67 -0.34 0.34 0 0 Z " fill="#F1FBFD" transform="translate(972,25)"/>
<path d="M0 0 C0.66 0.33 1.32 0.66 2 1 C1.34 3.31 0.68 5.62 0 8 C-0.66 8 -1.32 8 -2 8 C-2.125 5.125 -2.125 5.125 -2 2 C-1.34 1.34 -0.68 0.68 0 0 Z " fill="#F8FBF9" transform="translate(927,25)"/>
<path d="M0 0 C0.66 0 1.32 0 2 0 C2 0.66 2 1.32 2 2 C1.34 2 0.68 2 0 2 C0 2.99 0 3.98 0 5 C0.99 5 1.98 5 3 5 C2.67 5.99 2.34 6.98 2 8 C1.01 7.67 0.02 7.34 -1 7 C-1.04254356 5.00045254 -1.04080783 2.99958364 -1 1 C-0.67 0.67 -0.34 0.34 0 0 Z " fill="#1E82BA" transform="translate(890,930)"/>
<path d="M0 0 C1.32 0 2.64 0 4 0 C3.67 1.65 3.34 3.3 3 5 C2.01 4.67 1.02 4.34 0 4 C0 2.68 0 1.36 0 0 Z " fill="#1884B1" transform="translate(1091,933)"/>
<path d="M0 0 C1.9451 2.91765 2.45276317 4.62537285 3 8 C2.01 7.67 1.02 7.34 0 7 C0 6.34 0 5.68 0 5 C-1.32 4.67 -2.64 4.34 -4 4 C-2.68 4 -1.36 4 0 4 C0 2.68 0 1.36 0 0 Z " fill="#CBBAB1" transform="translate(87,636)"/>
<path d="M0 0 C0.99 0.33 1.98 0.66 3 1 C2.67 3.31 2.34 5.62 2 8 C1.34 8 0.68 8 0 8 C0 5.36 0 2.72 0 0 Z " fill="#C0BBC5" transform="translate(1079,931)"/>
<path d="M0 0 C0.99 0.33 1.98 0.66 3 1 C2.67 3.31 2.34 5.62 2 8 C1.34 8 0.68 8 0 8 C0 5.36 0 2.72 0 0 Z " fill="#C0BBC5" transform="translate(1031,931)"/>
<path d="M0 0 C0.99 0.33 1.98 0.66 3 1 C3.33 1.99 3.66 2.98 4 4 C2.35 4.33 0.7 4.66 -1 5 C-0.67 3.35 -0.34 1.7 0 0 Z " fill="#81B0CE" transform="translate(823,932)"/>
<path d="M0 0 C1.32 0 2.64 0 4 0 C4 1.65 4 3.3 4 5 C2.68 5 1.36 5 0 5 C0 3.35 0 1.7 0 0 Z " fill="#D6E9F0" transform="translate(1056,32)"/>
<path d="M0 0 C1.98 0.495 1.98 0.495 4 1 C4 1.99 4 2.98 4 4 C2.35 3.67 0.7 3.34 -1 3 C-0.67 2.01 -0.34 1.02 0 0 Z " fill="#D5E4E9" transform="translate(944,19)"/>
</svg>
